<svg xmlns="http://www.w3.org/2000/svg" id="Capa_1" height="512" viewBox="0 0 512 512" width="512"><g><path d="m482.454 25h-240.332c-16.292 0-29.546 13.28-29.546 29.603v101.546c0 16.323 13.254 29.603 29.546 29.603h21.365l3.815 14.31c.849 3.187 3.215 5.75 6.324 6.851 1.086.385 2.215.574 3.337.574 2.089 0 4.155-.654 5.889-1.917l27.204-19.817h172.397c16.292 0 29.546-13.28 29.546-29.603v-101.547c.001-16.323-13.253-29.603-29.545-29.603zm9.546 131.149c0 5.295-4.282 9.603-9.546 9.603h-175.653c-2.116 0-4.178.671-5.888 1.917l-18.044 13.144-2.036-7.637c-1.167-4.378-5.131-7.424-9.662-7.424h-29.049c-5.264 0-9.546-4.308-9.546-9.603v-101.546c0-5.295 4.282-9.603 9.546-9.603h240.332c5.264 0 9.546 4.308 9.546 9.603z"></path><path d="m10 242.41h166.303c5.523 0 10-4.477 10-10v-51.532c0-27.073-21.078-49.305-47.649-51.074 10.351-11.139 16.691-26.071 16.691-42.459 0-34.377-27.9-62.345-62.193-62.345s-62.194 27.968-62.194 62.345c0 16.388 6.34 31.32 16.691 42.459-26.571 1.769-47.649 24.001-47.649 51.074v51.532c0 5.523 4.477 10 10 10zm83.151-197.41c23.266 0 42.193 18.996 42.193 42.345s-18.928 42.345-42.193 42.345-42.193-18.996-42.193-42.345 18.928-42.345 42.193-42.345zm-73.151 135.878c0-17.197 13.937-31.188 31.068-31.188h84.166c17.131 0 31.069 13.991 31.069 31.188v41.532h-146.303z"></path><path d="m451.139 74.345h-177.702c-5.522 0-10 4.477-10 10s4.478 10 10 10h177.702c5.522 0 10-4.477 10-10s-4.478-10-10-10z"></path><path d="m451.139 116.262h-177.702c-5.522 0-10 4.477-10 10s4.478 10 10 10h177.702c5.522 0 10-4.477 10-10s-4.478-10-10-10z"></path><path d="m269.878 269.59h-240.332c-16.292 0-29.546 13.28-29.546 29.603v101.546c0 16.323 13.254 29.603 29.546 29.603h172.398l27.203 19.817c1.734 1.263 3.8 1.917 5.889 1.917 1.122 0 2.25-.189 3.337-.574 3.108-1.101 5.475-3.664 6.324-6.851l3.815-14.31h21.365c16.292 0 29.546-13.28 29.546-29.603v-101.545c.001-16.323-13.253-29.603-29.545-29.603zm9.546 131.149c0 5.295-4.282 9.603-9.546 9.603h-29.049c-4.531 0-8.496 3.046-9.663 7.424l-2.036 7.637-18.043-13.144c-1.71-1.246-3.772-1.917-5.888-1.917h-175.653c-5.264 0-9.546-4.308-9.546-9.603v-101.546c0-5.295 4.282-9.603 9.546-9.603h240.332c5.264 0 9.546 4.308 9.546 9.603z"></path><path d="m464.351 374.394c10.351-11.139 16.691-26.071 16.691-42.459 0-34.377-27.899-62.345-62.193-62.345s-62.193 27.968-62.193 62.345c0 16.388 6.34 31.32 16.691 42.459-26.571 1.769-47.649 24.001-47.649 51.074v51.532c0 5.523 4.478 10 10 10h166.302c5.522 0 10-4.477 10-10v-51.532c0-27.073-21.078-49.305-47.649-51.074zm-45.502-84.804c23.266 0 42.193 18.996 42.193 42.345s-18.928 42.345-42.193 42.345-42.193-18.996-42.193-42.345 18.927-42.345 42.193-42.345zm73.151 177.41h-146.303v-41.532c0-17.197 13.938-31.188 31.068-31.188h84.166c17.131 0 31.068 13.991 31.068 31.188v41.532z"></path><path d="m238.563 318.935h-177.702c-5.523 0-10 4.477-10 10s4.477 10 10 10h177.702c5.523 0 10-4.477 10-10s-4.477-10-10-10z"></path><path d="m238.563 360.852h-177.702c-5.523 0-10 4.477-10 10s4.477 10 10 10h177.702c5.523 0 10-4.477 10-10s-4.477-10-10-10z"></path></g></svg>