<svg xmlns="http://www.w3.org/2000/svg" width="33" height="33" viewBox="0 0 33 33"><path id="Exclusion_1" data-name="Exclusion 1" d="M776.5-1570a16.393,16.393,0,0,1-11.667-4.833A16.392,16.392,0,0,1,760-1586.5a16.392,16.392,0,0,1,4.833-11.667A16.392,16.392,0,0,1,776.5-1603a16.392,16.392,0,0,1,11.667,4.833A16.392,16.392,0,0,1,793-1586.5a16.392,16.392,0,0,1-4.833,11.667A16.392,16.392,0,0,1,776.5-1570Zm2.979-16.836c1.911,0,1.911,1.812,1.911,3.134v5.761h3.668l0-6.5c0-2.925-.534-5.631-4.4-5.631a3.882,3.882,0,0,0-3.477,1.912h-.051v-1.615H773.6v11.835h3.671v-5.86C777.275-1585.3,777.537-1586.836,779.479-1586.836Zm-11.853-2.94v11.835H771.3v-11.835Zm1.836-5.892a2.131,2.131,0,0,0-2.128,2.128,2.141,2.141,0,0,0,2.128,2.149,2.141,2.141,0,0,0,2.129-2.149A2.131,2.131,0,0,0,769.462-1595.668Z" transform="translate(-760 1603)" fill="#fff"></path></svg>