<svg xmlns="http://www.w3.org/2000/svg" id="instagram" width="33.139" height="33.139" viewBox="0 0 33.139 33.139"><path id="Path_2" data-name="Path 2" d="M213.343,210.172A3.172,3.172,0,1,1,210.172,207,3.171,3.171,0,0,1,213.343,210.172Zm0,0" transform="translate(-193.602 -193.602)" fill="#fff"></path><path id="Path_3" data-name="Path 3" d="M150.7,137.677a3.151,3.151,0,0,0-1.806-1.806,5.264,5.264,0,0,0-1.767-.327c-1-.046-1.3-.056-3.845-.056s-2.842.01-3.845.055a5.267,5.267,0,0,0-1.767.328,3.152,3.152,0,0,0-1.806,1.806,5.266,5.266,0,0,0-.327,1.767c-.046,1-.056,1.3-.056,3.845s.01,2.841.056,3.845a5.264,5.264,0,0,0,.327,1.767,3.151,3.151,0,0,0,1.806,1.806,5.258,5.258,0,0,0,1.767.328c1,.046,1.3.055,3.845.055s2.842-.01,3.845-.055a5.258,5.258,0,0,0,1.767-.328A3.151,3.151,0,0,0,150.7,148.9a5.269,5.269,0,0,0,.328-1.767c.046-1,.055-1.3.055-3.845s-.01-2.842-.055-3.845A5.258,5.258,0,0,0,150.7,137.677Zm-7.417,10.5a4.886,4.886,0,1,1,4.886-4.886A4.886,4.886,0,0,1,143.285,148.174Zm5.079-8.823a1.142,1.142,0,1,1,1.142-1.142A1.142,1.142,0,0,1,148.364,139.352Zm0,0" transform="translate(-126.715 -126.719)" fill="#fff"></path><path id="Path_4" data-name="Path 4" d="M16.57,0a16.57,16.57,0,1,0,16.57,16.57A16.571,16.571,0,0,0,16.57,0Zm9.457,20.492a6.981,6.981,0,0,1-.442,2.31A4.865,4.865,0,0,1,22.8,25.585a6.985,6.985,0,0,1-2.309.442c-1.015.046-1.339.057-3.923.057s-2.908-.011-3.923-.057a6.986,6.986,0,0,1-2.309-.442A4.865,4.865,0,0,1,7.555,22.8a6.979,6.979,0,0,1-.442-2.309c-.047-1.015-.058-1.339-.058-3.923s.011-2.908.057-3.923a6.981,6.981,0,0,1,.442-2.31,4.868,4.868,0,0,1,2.783-2.783,6.987,6.987,0,0,1,2.31-.442c1.015-.046,1.339-.057,3.923-.057s2.908.011,3.923.058a6.989,6.989,0,0,1,2.31.442,4.866,4.866,0,0,1,2.783,2.783,6.98,6.98,0,0,1,.442,2.31c.046,1.015.057,1.339.057,3.923S26.073,19.478,26.027,20.492Zm0,0" fill="#fff"></path></svg>