<svg xmlns="http://www.w3.org/2000/svg" height="682pt" viewBox="-21 -98 682.66669 682" width="682pt"><path d="m605.625-4.832031h-382.710938c-5.179687 0-9.375 4.199219-9.375 9.375s4.195313 9.375 9.375 9.375h382.710938c8.617188 0 15.625 7.003906 15.625 15.625v312.941406h-602.5v-39.023437c0-5.175782-4.199219-9.375-9.375-9.375s-9.375 4.199218-9.375 9.375v84.683593c0 18.957031 15.421875 34.375 34.375 34.375h117.851562v39.664063h-20.140624c-5.179688 0-9.375 4.199218-9.375 9.375 0 5.179687 4.195312 9.375 9.375 9.375h375.828124c5.179688 0 9.375-4.195313 9.375-9.375 0-5.175782-4.195312-9.375-9.375-9.375h-20.140624v-39.664063h117.851562c18.953125 0 34.375-15.417969 34.375-34.375v-358.601562c0-18.957031-15.421875-34.375-34.375-34.375zm-136.601562 467.015625h-298.046876v-39.664063h298.046876zm136.601562-58.414063h-571.25c-8.617188 0-15.625-7.011719-15.625-15.625v-26.910156h602.5v26.910156c0 8.613281-7.007812 15.625-15.625 15.625zm0 0"></path><path d="m9.375 272.011719c5.175781 0 9.375-4.199219 9.375-9.375v-233.09375c0-8.621094 7.007812-15.625 15.625-15.625h147.714844c5.175781 0 9.375-4.199219 9.375-9.375 0-5.175781-4.199219-9.375-9.375-9.375h-147.714844c-18.953125 0-34.375 15.417969-34.375 34.375v233.09375c0 5.175781 4.199219 9.375 9.375 9.375zm0 0"></path><path d="m320.109375 373.125h-.128906c-.015625 0-.027344 0-.050781 0-5.15625 0-9.34375 4.171875-9.367188 9.335938-.023438 5.175781 4.148438 9.394531 9.328125 9.414062h.179687c5.15625 0 9.34375-4.164062 9.367188-9.332031.023438-5.175781-4.148438-9.386719-9.328125-9.417969zm0 0"></path><path d="m320 66.417969c-123.476562 0-225.777344 96.46875-232.898438 219.617187-.34375 5.9375 1.808594 11.832032 5.90625 16.171875 4.121094 4.371094 9.9375 6.875 15.941407 6.875h176.332031c6.59375 12.484375 19.710938 21.019531 34.78125 21.019531 15.074219 0 28.1875-8.535156 34.78125-21.019531h94.742188c5.179687 0 9.375-4.195312 9.375-9.375 0-5.175781-4.195313-9.375-9.375-9.375h-31.660157c-2.046875-21.519531-11.046875-41.035156-24.726562-56.273437l16.722656-16.730469c3.664063-3.660156 3.664063-9.59375 0-13.253906-3.65625-3.664063-9.59375-3.664063-13.257813 0l-17.269531 17.269531c-16.519531-12.550781-37.09375-20.015625-59.394531-20.015625-51.085938 0-93.1875 39.140625-97.925781 89.003906h-113.125c-1.191407 0-1.957031-.625-2.308594-.996093-.410156-.429688-.882813-1.167969-.820313-2.222657 6.546876-113.242187 100.625-201.945312 214.179688-201.945312 113.550781 0 207.625 88.703125 214.179688 201.945312.058593 1.054688-.414063 1.792969-.824219 2.222657-.351563.375-1.121094.996093-2.304688.996093h-40.640625c-5.175781 0-9.375 4.199219-9.375 9.375 0 5.179688 4.199219 9.375 9.375 9.375h40.640625c6.003907 0 11.816407-2.503906 15.941407-6.875 4.097656-4.339843 6.25-10.234375 5.902343-16.171875-7.117187-123.148437-109.417969-219.617187-232.894531-219.617187zm.0625 244.933593c-11.335938 0-20.554688-9.21875-20.554688-20.554687 0-11.339844 9.21875-20.5625 20.554688-20.5625 11.339844 0 20.5625 9.222656 20.5625 20.5625 0 11.335937-9.222656 20.554687-20.5625 20.554687zm79-21.015624h-39.695312c-.078126-6.453126-1.714844-12.539063-4.554688-17.894532l25.105469-25.101562c10.316406 11.796875 17.214843 26.640625 19.144531 42.996094zm-79.0625-70.257813c17.117188 0 32.984375 5.449219 45.980469 14.679687l-23.65625 23.660157c-6.339844-4.371094-14.003907-6.933594-22.261719-6.933594-21.523438 0-39.046875 17.386719-39.296875 38.851563h-39.828125c4.65625-39.503907 38.324219-70.257813 79.0625-70.257813zm0 0"></path><path d="m310.625 110.96875v15.964844c0 5.175781 4.199219 9.375 9.375 9.375s9.375-4.199219 9.375-9.375v-15.964844c0-5.183594-4.199219-9.375-9.375-9.375s-9.375 4.191406-9.375 9.375zm0 0"></path><path d="m444.082031 158.429688-11.289062 11.289062c-3.660157 3.660156-3.660157 9.597656 0 13.253906 1.824219 1.832032 4.230469 2.75 6.625 2.75 2.398437 0 4.800781-.917968 6.632812-2.75l11.289063-11.289062c3.660156-3.660156 3.660156-9.597656 0-13.253906-3.660156-3.664063-9.597656-3.664063-13.257813 0zm0 0"></path><path d="m372.949219 113.257812c-5.175781 0-9.375 4.199219-9.375 9.375 0 5.179688 4.199219 9.375 9.375 9.375h.132812c5.175781 0 9.375-4.195312 9.375-9.375 0-5.175781-4.199219-9.375-9.375-9.375zm0 0"></path><path d="m409.292969 130.550781c-.015625 0-.035157 0-.050781 0-5.15625 0-9.34375 4.167969-9.367188 9.332031-.027344 5.175782 4.148438 9.394532 9.328125 9.417969h.175781c5.15625 0 9.347656-4.167969 9.371094-9.328125.023438-5.183594-4.148438-9.402344-9.332031-9.421875zm0 0"></path><path d="m481.738281 196.460938-.09375-.089844c-3.65625-3.660156-9.59375-3.660156-13.253906 0-3.664063 3.660156-3.664063 9.597656 0 13.257812l.089844.089844c1.832031 1.828125 4.230469 2.746094 6.632812 2.746094 2.394531 0 4.792969-.917969 6.625-2.746094 3.660157-3.660156 3.660157-9.597656 0-13.257812zm0 0"></path><path d="m496.046875 250.355469c2.386719 0 4.777344-.90625 6.605469-2.722657 3.675781-3.648437 3.695312-9.585937.042968-13.257812l-.085937-.09375c-3.65625-3.671875-9.585937-3.691406-13.257813-.042969-3.679687 3.652344-3.695312 9.585938-.046874 13.257813l.089843.09375c1.832031 1.84375 4.242188 2.765625 6.652344 2.765625zm0 0"></path><path d="m158.355469 196.371094-.09375.089844c-3.660157 3.660156-3.660157 9.597656 0 13.257812 1.832031 1.828125 4.230469 2.746094 6.625 2.746094 2.402343 0 4.800781-.917969 6.632812-2.746094l.089844-.089844c3.664063-3.660156 3.664063-9.597656 0-13.257812-3.660156-3.660156-9.597656-3.660156-13.253906 0zm0 0"></path><path d="m137.390625 234.28125-.085937.09375c-3.652344 3.671875-3.632813 9.609375.042968 13.257812 1.828125 1.816407 4.21875 2.722657 6.605469 2.722657 2.410156 0 4.820313-.925781 6.652344-2.765625l.09375-.09375c3.644531-3.671875 3.628906-9.609375-.042969-13.257813-3.679688-3.648437-9.609375-3.628906-13.265625.042969zm0 0"></path><path d="m180.742188 158.429688c-3.664063 3.65625-3.664063 9.59375 0 13.253906l11.289062 11.289062c1.832031 1.832032 4.226562 2.75 6.632812 2.75 2.394532 0 4.792969-.917968 6.625-2.75 3.660157-3.660156 3.660157-9.59375 0-13.253906l-11.289062-11.289062c-3.664062-3.664063-9.601562-3.664063-13.257812 0zm0 0"></path><path d="m265 113.257812c-5.175781 0-9.375 4.199219-9.375 9.375 0 5.179688 4.199219 9.375 9.375 9.375h.132812c5.175782 0 9.375-4.195312 9.375-9.375 0-5.175781-4.199218-9.375-9.375-9.375zm0 0"></path><path d="m228.789062 130.550781h-.125c-5.183593.027344-9.359374 4.238281-9.332031 9.421875.023438 5.160156 4.21875 9.328125 9.375 9.328125h.167969c5.183594-.027343 9.359375-4.242187 9.332031-9.417969-.023437-5.164062-4.214843-9.332031-9.371093-9.332031-.011719 0-.027344 0-.046876 0zm0 0"></path><path d="m66.867188 62.667969h19.523437c5.175781 0 9.375-4.199219 9.375-9.375s-4.199219-9.375-9.375-9.375h-19.523437c-5.183594 0-9.375 4.199219-9.375 9.375s4.191406 9.375 9.375 9.375zm0 0"></path><path d="m66.867188 90.167969h64.523437c5.175781 0 9.375-4.199219 9.375-9.375s-4.199219-9.375-9.375-9.375h-64.523437c-5.183594 0-9.375 4.199219-9.375 9.375s4.191406 9.375 9.375 9.375zm0 0"></path><path d="m66.867188 117.667969h64.523437c5.175781 0 9.375-4.199219 9.375-9.375s-4.199219-9.375-9.375-9.375h-64.523437c-5.183594 0-9.375 4.199219-9.375 9.375s4.191406 9.375 9.375 9.375zm0 0"></path><path d="m573.132812 62.667969c5.183594 0 9.375-4.199219 9.375-9.375s-4.191406-9.375-9.375-9.375h-19.523437c-5.175781 0-9.375 4.199219-9.375 9.375s4.199219 9.375 9.375 9.375zm0 0"></path><path d="m499.234375 80.792969c0 5.175781 4.199219 9.375 9.375 9.375h64.523437c5.183594 0 9.375-4.199219 9.375-9.375s-4.191406-9.375-9.375-9.375h-64.523437c-5.175781 0-9.375 4.199219-9.375 9.375zm0 0"></path><path d="m508.609375 117.667969h64.523437c5.183594 0 9.375-4.199219 9.375-9.375s-4.191406-9.375-9.375-9.375h-64.523437c-5.175781 0-9.375 4.199219-9.375 9.375s4.199219 9.375 9.375 9.375zm0 0"></path></svg>