<svg xmlns="http://www.w3.org/2000/svg" width="33.139" height="33.139" viewBox="0 0 33.139 33.139"><path id="twitter" d="M16.57,0a16.57,16.57,0,1,0,16.57,16.57A16.571,16.571,0,0,0,16.57,0Zm7.566,12.919q.011.245.011.492A10.747,10.747,0,0,1,13.325,24.232h0A10.765,10.765,0,0,1,7.5,22.523a7.735,7.735,0,0,0,.907.053,7.631,7.631,0,0,0,4.724-1.628,3.807,3.807,0,0,1-3.553-2.642,3.791,3.791,0,0,0,1.718-.065A3.8,3.8,0,0,1,8.24,14.513c0-.017,0-.033,0-.049a3.777,3.777,0,0,0,1.723.476A3.806,3.806,0,0,1,8.785,9.863a10.8,10.8,0,0,0,7.839,3.974,3.805,3.805,0,0,1,6.481-3.468,7.628,7.628,0,0,0,2.415-.923,3.818,3.818,0,0,1-1.672,2.1,7.585,7.585,0,0,0,2.184-.6,7.729,7.729,0,0,1-1.9,1.97Zm0,0" fill="#fff"></path></svg>